<?xml version="1.0" standalone="no"?>
<!DOCTYPE svg PUBLIC "-//W3C//DTD SVG 20010904//EN"
 "http://www.w3.org/TR/2001/REC-SVG-20010904/DTD/svg10.dtd">
<svg version="1.0" xmlns="http://www.w3.org/2000/svg"
 width="225.000000pt" height="225.000000pt" viewBox="0 0 225.000000 225.000000"
 preserveAspectRatio="xMidYMid meet">
<metadata>
Created by potrace 1.10, written by Peter Selinger 2001-2011
</metadata>
<g transform="translate(0.000000,225.000000) scale(0.100000,-0.100000)"
fill="#000000" stroke="none">
<path d="M1161 1980 c-67 -31 -92 -91 -75 -179 11 -52 24 -35 24 30 0 56 3 64
34 95 l34 34 151 0 c161 0 199 -9 221 -49 6 -12 10 -98 10 -208 0 -183 8 -237
29 -203 6 8 10 93 11 189 0 203 -9 241 -67 281 -34 24 -45 25 -183 26 -124 2
-154 -1 -189 -16z"/>
<path d="M1132 1819 c2 -8 18 -15 34 -17 16 -2 36 -6 44 -9 15 -6 25 -9 46
-11 6 -1 35 -25 64 -52 l53 -51 4 -97 c1 -53 3 -128 3 -165 0 -43 4 -66 10
-62 6 4 10 57 10 126 0 65 4 119 8 119 5 0 34 -28 64 -63 31 -35 63 -64 72
-64 14 0 14 3 -1 26 -41 63 -237 289 -264 305 -40 24 -154 35 -147 15z"/>
<path d="M1095 1743 c-3 -10 -9 -101 -12 -203 -5 -180 -5 -186 16 -204 26 -23
26 -32 2 -39 -12 -3 -23 4 -35 23 -13 22 -16 56 -16 159 0 125 -1 133 -23 155
-23 23 -27 23 -173 19 -119 -4 -153 -8 -167 -21 -17 -15 -18 -32 -15 -183 l3
-166 39 -78 c64 -125 166 -214 286 -251 106 -32 249 -21 316 23 14 9 39 24 55
32 83 45 202 204 185 247 -6 15 -13 6 -37 -44 -56 -115 -162 -200 -292 -233
-26 -6 -84 -10 -130 -7 -66 3 -97 11 -150 36 -128 59 -224 188 -247 328 -6 33
-10 112 -10 177 l0 117 164 0 165 0 3 -212 c3 -204 4 -215 28 -261 29 -58 77
-98 144 -120 61 -21 72 -21 52 -2 -8 8 -20 15 -26 15 -39 0 -178 119 -164 141
3 5 2 15 -2 21 -5 7 -9 19 -10 28 -1 8 -5 28 -9 44 -8 29 -8 29 16 13 20 -15
56 -17 264 -17 159 0 235 4 225 10 -8 5 -43 10 -77 10 -76 0 -98 7 -82 26 9
11 -14 13 -130 11 l-141 -2 -1 185 c-1 102 -1 197 0 213 1 31 -4 35 -14 10z"/>
<path d="M903 839 c-33 -10 -83 -63 -91 -96 -4 -19 -5 -55 -3 -133 1 -25 1
-67 1 -95 -1 -76 0 -85 11 -85 5 0 9 -6 9 -14 0 -17 56 -53 101 -66 43 -13
116 13 152 53 27 31 28 35 24 122 -2 50 1 103 6 118 l9 28 29 -27 c28 -27 29
-31 29 -126 0 -145 21 -175 115 -165 63 7 77 35 83 164 4 96 7 111 29 137 20
24 24 38 22 89 -4 92 -13 98 -157 95 l-117 -3 -24 -38 -24 -37 -21 29 c-12 17
-32 35 -45 41 -35 16 -102 21 -138 9z m127 -44 c16 -8 34 -24 40 -34 9 -19 15
-141 6 -141 -15 0 -35 14 -30 21 3 5 -5 9 -17 9 -20 0 -18 -3 15 -40 32 -36
36 -46 36 -95 0 -30 -5 -65 -11 -79 -28 -60 -146 -74 -197 -22 -21 21 -27 37
-30 91 l-4 65 43 0 c31 0 40 3 29 9 -8 6 -17 8 -21 6 -15 -10 -42 39 -47 85
-6 60 11 106 47 125 34 19 105 19 141 0z m361 11 c2 -2 2 -37 1 -76 -4 -70 -4
-72 -28 -67 l-24 4 0 -141 0 -141 -62 2 -63 1 -2 139 -3 138 -25 -3 c-25 -3
-25 -2 -25 73 l0 75 113 0 c63 0 116 -2 118 -4z"/>
<path d="M898 775 c-15 -9 -29 -27 -33 -45 -12 -53 3 -86 61 -135 54 -46 73
-90 37 -83 -10 2 -17 11 -17 21 2 14 -7 17 -42 17 -40 0 -44 -2 -44 -25 0 -77
83 -120 159 -80 33 17 41 33 41 83 0 30 -9 44 -60 94 -60 58 -72 81 -46 91 18
7 26 -1 26 -25 0 -14 8 -18 40 -18 39 0 40 1 40 34 0 52 -27 78 -86 82 -32 3
-58 -1 -76 -11z m52 -37 c0 -5 -4 -7 -9 -3 -5 3 -15 -11 -22 -30 -11 -29 -15
-32 -20 -18 -3 10 -1 21 5 25 8 6 7 8 -1 8 -9 0 -8 6 4 19 16 19 43 18 43 -1z
m54 6 c24 -24 19 -40 -6 -18 -13 12 -18 13 -13 4 8 -13 7 -13 -9 -1 -13 11
-14 16 -4 22 17 11 14 12 32 -7z m19 -222 c1 -18 -2 -31 -7 -31 -5 0 -12 -5
-17 -12 -4 -8 -11 -10 -15 -6 -4 4 -1 15 7 24 9 10 15 30 14 45 -1 38 16 18
18 -20z m-93 -32 c6 -12 17 -17 28 -14 14 5 14 4 3 -4 -16 -12 -51 1 -51 19 0
6 -5 7 -12 3 -7 -4 -8 -3 -4 4 11 18 24 15 36 -8z"/>
<path d="M1180 749 c0 -38 1 -40 28 -37 l27 3 3 -137 3 -138 39 0 40 0 0 139
0 138 25 -5 c23 -4 25 -2 25 37 l0 41 -95 0 -95 0 0 -41z m133 4 c3 -5 -5 -23
-18 -41 l-23 -33 -6 26 c-4 14 -11 25 -16 25 -6 0 -10 7 -10 15 0 10 10 15 34
15 19 0 37 -3 39 -7z m-24 -238 c0 -29 -2 -36 -9 -25 -5 8 -9 53 -8 100 l1 85
7 -60 c4 -33 8 -78 9 -100z"/>
<path d="M269 823 c-8 -9 -16 -46 -19 -82 -5 -66 -5 -66 -37 -69 -17 -2 -43
-14 -58 -28 -27 -24 -27 -28 -23 -113 6 -131 45 -176 159 -180 40 -2 61 2 72
13 9 9 20 16 25 16 6 0 20 16 33 36 21 34 22 49 23 209 1 211 -1 215 -99 215
-46 0 -66 -4 -76 -17z m141 -170 c0 -87 -5 -175 -11 -196 -18 -65 -90 -93
-168 -66 -46 16 -61 53 -61 154 l0 85 55 0 55 0 0 90 0 90 65 0 65 0 0 -157z"/>
<path d="M309 788 c0 -2 -2 -64 -4 -138 -3 -113 -6 -136 -19 -138 -13 -3 -16
6 -16 47 l0 51 -40 0 -40 0 0 -61 c0 -75 10 -94 56 -109 44 -15 95 -6 119 20
16 18 19 40 19 173 l1 152 -37 3 c-21 2 -38 2 -39 0z m49 -217 c-4 -80 -17
-97 -77 -96 -48 0 -60 14 -59 70 l0 30 9 -33 c6 -20 14 -30 21 -26 6 4 8 3 5
-3 -13 -20 18 -35 46 -22 20 9 28 22 33 56 3 24 4 62 1 83 -3 21 -2 41 1 45
13 12 23 -41 20 -104z"/>
<path d="M492 812 c-18 -25 -20 -45 -21 -187 0 -181 8 -212 68 -252 27 -18 47
-23 94 -22 55 2 64 5 99 38 46 42 47 46 50 247 3 209 6 204 -152 204 -118 0
-119 0 -138 -28z m257 -186 c-4 -179 -5 -185 -28 -210 -43 -46 -141 -47 -187
-1 -24 24 -24 27 -24 210 l0 185 121 0 121 0 -3 -184z"/>
<path d="M530 635 c0 -141 2 -157 20 -175 25 -25 61 -34 104 -26 62 12 67 26
68 198 l0 153 -41 3 -41 3 0 -140 c0 -119 -2 -141 -15 -141 -13 0 -15 22 -15
140 l0 140 -40 0 -40 0 0 -155z m49 2 c-1 -48 -4 -86 -6 -83 -2 2 -5 47 -6 99
-1 52 1 90 6 84 4 -7 7 -52 6 -100z m114 -19 c-2 -96 -6 -125 -18 -134 -8 -6
-11 -15 -7 -19 4 -5 1 -5 -5 -1 -17 10 -16 31 2 46 12 10 15 37 15 121 0 60 3
109 8 109 4 0 6 -55 5 -122z m-110 -91 c7 3 9 3 5 -1 -8 -9 19 -40 42 -49 9
-3 5 -6 -10 -6 -35 -1 -47 9 -54 44 -3 17 -3 24 0 17 3 -6 11 -9 17 -5z"/>
<path d="M1532 818 c-11 -13 -37 -68 -56 -123 -61 -169 -45 -275 40 -275 24 0
37 -5 41 -17 22 -57 117 -73 166 -27 16 14 26 32 23 40 -3 8 -2 14 3 14 4 0
13 18 20 41 12 41 8 107 -10 141 -5 9 -9 53 -10 97 -2 116 -15 131 -118 131
-67 0 -80 -3 -99 -22z m178 -113 c0 -87 3 -105 15 -105 12 0 15 -14 15 -70 0
-56 -3 -70 -15 -70 -11 0 -15 -11 -15 -37 l0 -38 -60 0 -60 0 0 38 0 38 -60
-7 -60 -7 0 63 c0 48 10 91 41 182 l42 118 78 0 79 0 0 -105z"/>
<path d="M1565 778 c-2 -7 -20 -58 -40 -113 -20 -55 -35 -113 -33 -130 3 -30
4 -30 61 -29 l57 1 0 -33 c0 -33 1 -34 40 -34 37 0 40 2 40 29 0 16 6 31 15
35 9 3 15 18 15 36 0 18 -6 33 -15 36 -12 5 -15 27 -15 110 l0 104 -60 0 c-40
0 -62 -4 -65 -12z m92 -84 c-1 -30 1 -56 6 -58 4 -3 2 -3 -5 -2 -7 1 -14 13
-16 27 -4 38 -23 67 -46 74 -20 6 -20 6 -2 14 11 4 30 6 43 3 21 -4 23 -9 20
-58z m-47 -44 c0 -68 -1 -70 -25 -70 -21 0 -24 3 -17 18 5 9 15 41 22 70 6 28
14 52 16 52 2 0 4 -31 4 -70z m45 -50 c-2 -4 2 -16 10 -26 19 -25 19 -48 0
-64 -8 -7 -12 -17 -8 -24 4 -6 -1 -5 -10 3 -9 7 -17 20 -17 28 0 8 -4 12 -9 8
-5 -3 -12 -1 -16 5 -3 5 -1 10 6 10 7 0 9 3 6 6 -4 4 3 15 15 25 11 11 17 19
12 19 -5 0 -10 9 -10 19 0 15 3 17 13 9 7 -6 11 -14 8 -18z"/>
<path d="M1816 818 c-13 -18 -16 -55 -16 -191 0 -152 2 -173 20 -206 27 -47
63 -67 127 -70 64 -3 104 16 138 66 24 37 25 42 25 208 0 223 6 215 -160 215
-112 0 -120 -1 -134 -22z m254 -189 c0 -104 -4 -188 -10 -200 -14 -25 -62 -49
-100 -49 -44 0 -96 24 -111 52 -13 24 -27 334 -16 362 5 13 27 16 122 16 l115
0 0 -181z"/>
<path d="M1860 632 c0 -149 1 -160 21 -178 29 -26 119 -26 148 0 20 18 21 29
21 178 l0 158 -40 0 -40 0 0 -140 c0 -118 -2 -140 -15 -140 -13 0 -15 22 -15
140 l0 140 -40 0 -40 0 0 -158z m69 -133 c13 -10 27 -19 31 -19 15 0 42 40 44
64 1 19 4 22 14 14 8 -7 9 -14 3 -18 -6 -3 -9 -19 -8 -35 2 -29 1 -30 -46 -30
-27 0 -53 3 -59 6 -7 4 -12 54 -13 131 l-3 123 7 -108 c5 -98 8 -111 30 -128z"/>
</g>
</svg>
